<mxfile host="app.diagrams.net" modified="2024-07-07T14:21:37.340Z" agent="Mozilla/5.0 (Windows NT 10.0; Win64; x64) AppleWebKit/537.36 (KHTML, like Gecko) Chrome/126.0.0.0 Safari/537.36" etag="DZMOuM8Aa_7X7m0ZhnQ2" version="24.6.4" type="device">
  <diagram name="Sayfa -1" id="z6ZB0iyA-3QIc9mKRvGv">
    <mxGraphModel dx="1450" dy="705" grid="1" gridSize="10" guides="0" tooltips="1" connect="1" arrows="0" fold="1" page="1" pageScale="1" pageWidth="827" pageHeight="1169" math="0" shadow="0">
      <root>
        <mxCell id="0" />
        <mxCell id="1" parent="0" />
        <mxCell id="UILlpLeWlF1B1nE7Op1k-28" value="Kullanıcı" style="shape=table;startSize=30;container=1;collapsible=0;childLayout=tableLayout;" vertex="1" parent="1">
          <mxGeometry x="40" y="80" width="430" height="80" as="geometry" />
        </mxCell>
        <mxCell id="UILlpLeWlF1B1nE7Op1k-29" value="" style="shape=tableRow;horizontal=0;startSize=0;swimlaneHead=0;swimlaneBody=0;strokeColor=inherit;top=0;left=0;bottom=0;right=0;collapsible=0;dropTarget=0;fillColor=none;points=[[0,0.5],[1,0.5]];portConstraint=eastwest;" vertex="1" parent="UILlpLeWlF1B1nE7Op1k-28">
          <mxGeometry y="30" width="430" height="50" as="geometry" />
        </mxCell>
        <mxCell id="UILlpLeWlF1B1nE7Op1k-30" value="&lt;u&gt;KullanıcıID&lt;/u&gt;" style="shape=partialRectangle;html=1;whiteSpace=wrap;connectable=0;strokeColor=inherit;overflow=hidden;fillColor=none;top=0;left=0;bottom=0;right=0;pointerEvents=1;" vertex="1" parent="UILlpLeWlF1B1nE7Op1k-29">
          <mxGeometry width="70" height="50" as="geometry">
            <mxRectangle width="70" height="50" as="alternateBounds" />
          </mxGeometry>
        </mxCell>
        <mxCell id="UILlpLeWlF1B1nE7Op1k-31" value="E-Posta" style="shape=partialRectangle;html=1;whiteSpace=wrap;connectable=0;strokeColor=inherit;overflow=hidden;fillColor=none;top=0;left=0;bottom=0;right=0;pointerEvents=1;" vertex="1" parent="UILlpLeWlF1B1nE7Op1k-29">
          <mxGeometry x="70" width="80" height="50" as="geometry">
            <mxRectangle width="80" height="50" as="alternateBounds" />
          </mxGeometry>
        </mxCell>
        <mxCell id="UILlpLeWlF1B1nE7Op1k-32" value="Şifre" style="shape=partialRectangle;html=1;whiteSpace=wrap;connectable=0;strokeColor=inherit;overflow=hidden;fillColor=none;top=0;left=0;bottom=0;right=0;pointerEvents=1;" vertex="1" parent="UILlpLeWlF1B1nE7Op1k-29">
          <mxGeometry x="150" width="70" height="50" as="geometry">
            <mxRectangle width="70" height="50" as="alternateBounds" />
          </mxGeometry>
        </mxCell>
        <mxCell id="UILlpLeWlF1B1nE7Op1k-236" value="KullanıcıAdı" style="shape=partialRectangle;html=1;whiteSpace=wrap;connectable=0;strokeColor=inherit;overflow=hidden;fillColor=none;top=0;left=0;bottom=0;right=0;pointerEvents=1;" vertex="1" parent="UILlpLeWlF1B1nE7Op1k-29">
          <mxGeometry x="220" width="70" height="50" as="geometry">
            <mxRectangle width="70" height="50" as="alternateBounds" />
          </mxGeometry>
        </mxCell>
        <mxCell id="UILlpLeWlF1B1nE7Op1k-237" value="Adı" style="shape=partialRectangle;html=1;whiteSpace=wrap;connectable=0;strokeColor=inherit;overflow=hidden;fillColor=none;top=0;left=0;bottom=0;right=0;pointerEvents=1;" vertex="1" parent="UILlpLeWlF1B1nE7Op1k-29">
          <mxGeometry x="290" width="70" height="50" as="geometry">
            <mxRectangle width="70" height="50" as="alternateBounds" />
          </mxGeometry>
        </mxCell>
        <mxCell id="UILlpLeWlF1B1nE7Op1k-238" value="Soyadı" style="shape=partialRectangle;html=1;whiteSpace=wrap;connectable=0;strokeColor=inherit;overflow=hidden;fillColor=none;top=0;left=0;bottom=0;right=0;pointerEvents=1;" vertex="1" parent="UILlpLeWlF1B1nE7Op1k-29">
          <mxGeometry x="360" width="70" height="50" as="geometry">
            <mxRectangle width="70" height="50" as="alternateBounds" />
          </mxGeometry>
        </mxCell>
        <mxCell id="UILlpLeWlF1B1nE7Op1k-41" value="Film" style="shape=table;startSize=30;container=1;collapsible=0;childLayout=tableLayout;points=[[0,0,0,0,0],[0,0.25,0,0,0],[0,0.5,0,0,0],[0,0.75,0,0,0],[0,1,0,0,0],[0.13,1,0,0,0],[0.25,0,0,0,0],[0.25,1,0,0,0],[0.5,0,0,0,0],[0.5,1,0,0,0],[0.75,0,0,0,0],[0.75,1,0,0,0],[1,0,0,0,0],[1,0.25,0,0,0],[1,0.5,0,0,0],[1,0.75,0,0,0],[1,1,0,0,0]];" vertex="1" parent="1">
          <mxGeometry x="40" y="240" width="380" height="80" as="geometry" />
        </mxCell>
        <mxCell id="UILlpLeWlF1B1nE7Op1k-42" value="" style="shape=tableRow;horizontal=0;startSize=0;swimlaneHead=0;swimlaneBody=0;strokeColor=inherit;top=0;left=0;bottom=0;right=0;collapsible=0;dropTarget=0;fillColor=none;points=[[0,0.5],[1,0.5]];portConstraint=eastwest;" vertex="1" parent="UILlpLeWlF1B1nE7Op1k-41">
          <mxGeometry y="30" width="380" height="50" as="geometry" />
        </mxCell>
        <mxCell id="UILlpLeWlF1B1nE7Op1k-43" value="&lt;u&gt;FilmID&lt;/u&gt;" style="shape=partialRectangle;html=1;whiteSpace=wrap;connectable=0;strokeColor=inherit;overflow=hidden;fillColor=none;top=0;left=0;bottom=0;right=0;pointerEvents=1;" vertex="1" parent="UILlpLeWlF1B1nE7Op1k-42">
          <mxGeometry width="60" height="50" as="geometry">
            <mxRectangle width="60" height="50" as="alternateBounds" />
          </mxGeometry>
        </mxCell>
        <mxCell id="UILlpLeWlF1B1nE7Op1k-44" value="Ad" style="shape=partialRectangle;html=1;whiteSpace=wrap;connectable=0;strokeColor=inherit;overflow=hidden;fillColor=none;top=0;left=0;bottom=0;right=0;pointerEvents=1;" vertex="1" parent="UILlpLeWlF1B1nE7Op1k-42">
          <mxGeometry x="60" width="60" height="50" as="geometry">
            <mxRectangle width="60" height="50" as="alternateBounds" />
          </mxGeometry>
        </mxCell>
        <mxCell id="UILlpLeWlF1B1nE7Op1k-45" value="FilmAçıklaması" style="shape=partialRectangle;html=1;whiteSpace=wrap;connectable=0;strokeColor=inherit;overflow=hidden;fillColor=none;top=0;left=0;bottom=0;right=0;pointerEvents=1;" vertex="1" parent="UILlpLeWlF1B1nE7Op1k-42">
          <mxGeometry x="120" width="100" height="50" as="geometry">
            <mxRectangle width="100" height="50" as="alternateBounds" />
          </mxGeometry>
        </mxCell>
        <mxCell id="UILlpLeWlF1B1nE7Op1k-46" value="Puan" style="shape=partialRectangle;html=1;whiteSpace=wrap;connectable=0;strokeColor=inherit;overflow=hidden;fillColor=none;top=0;left=0;bottom=0;right=0;pointerEvents=1;" vertex="1" parent="UILlpLeWlF1B1nE7Op1k-42">
          <mxGeometry x="220" width="80" height="50" as="geometry">
            <mxRectangle width="80" height="50" as="alternateBounds" />
          </mxGeometry>
        </mxCell>
        <mxCell id="UILlpLeWlF1B1nE7Op1k-47" value="Popülerlik" style="shape=partialRectangle;html=1;whiteSpace=wrap;connectable=0;strokeColor=inherit;overflow=hidden;fillColor=none;top=0;left=0;bottom=0;right=0;pointerEvents=1;" vertex="1" parent="UILlpLeWlF1B1nE7Op1k-42">
          <mxGeometry x="300" width="80" height="50" as="geometry">
            <mxRectangle width="80" height="50" as="alternateBounds" />
          </mxGeometry>
        </mxCell>
        <mxCell id="UILlpLeWlF1B1nE7Op1k-49" value="Oyuncular" style="shape=table;startSize=30;container=1;collapsible=0;childLayout=tableLayout;" vertex="1" parent="1">
          <mxGeometry x="70" y="400" width="180" height="80" as="geometry" />
        </mxCell>
        <mxCell id="UILlpLeWlF1B1nE7Op1k-50" value="" style="shape=tableRow;horizontal=0;startSize=0;swimlaneHead=0;swimlaneBody=0;strokeColor=inherit;top=0;left=0;bottom=0;right=0;collapsible=0;dropTarget=0;fillColor=none;points=[[0,0.5],[1,0.5]];portConstraint=eastwest;" vertex="1" parent="UILlpLeWlF1B1nE7Op1k-49">
          <mxGeometry y="30" width="180" height="50" as="geometry" />
        </mxCell>
        <mxCell id="UILlpLeWlF1B1nE7Op1k-51" value="&lt;u&gt;FilmID (FK)&lt;/u&gt;" style="shape=partialRectangle;html=1;whiteSpace=wrap;connectable=0;strokeColor=inherit;overflow=hidden;fillColor=none;top=0;left=0;bottom=0;right=0;pointerEvents=1;" vertex="1" parent="UILlpLeWlF1B1nE7Op1k-50">
          <mxGeometry width="100" height="50" as="geometry">
            <mxRectangle width="100" height="50" as="alternateBounds" />
          </mxGeometry>
        </mxCell>
        <mxCell id="UILlpLeWlF1B1nE7Op1k-52" value="&lt;u&gt;Oyuncu&lt;/u&gt;" style="shape=partialRectangle;html=1;whiteSpace=wrap;connectable=0;strokeColor=inherit;overflow=hidden;fillColor=none;top=0;left=0;bottom=0;right=0;pointerEvents=1;" vertex="1" parent="UILlpLeWlF1B1nE7Op1k-50">
          <mxGeometry x="100" width="80" height="50" as="geometry">
            <mxRectangle width="80" height="50" as="alternateBounds" />
          </mxGeometry>
        </mxCell>
        <mxCell id="UILlpLeWlF1B1nE7Op1k-53" value="Genre" style="shape=table;startSize=30;container=1;collapsible=0;childLayout=tableLayout;" vertex="1" parent="1">
          <mxGeometry x="580" y="550" width="60" height="80" as="geometry" />
        </mxCell>
        <mxCell id="UILlpLeWlF1B1nE7Op1k-54" value="" style="shape=tableRow;horizontal=0;startSize=0;swimlaneHead=0;swimlaneBody=0;strokeColor=inherit;top=0;left=0;bottom=0;right=0;collapsible=0;dropTarget=0;fillColor=none;points=[[0,0.5],[1,0.5]];portConstraint=eastwest;" vertex="1" parent="UILlpLeWlF1B1nE7Op1k-53">
          <mxGeometry y="30" width="60" height="50" as="geometry" />
        </mxCell>
        <mxCell id="UILlpLeWlF1B1nE7Op1k-55" value="&lt;u&gt;GenreAdı&lt;/u&gt;" style="shape=partialRectangle;html=1;whiteSpace=wrap;connectable=0;strokeColor=inherit;overflow=hidden;fillColor=none;top=0;left=0;bottom=0;right=0;pointerEvents=1;" vertex="1" parent="UILlpLeWlF1B1nE7Op1k-54">
          <mxGeometry width="60" height="50" as="geometry">
            <mxRectangle width="60" height="50" as="alternateBounds" />
          </mxGeometry>
        </mxCell>
        <mxCell id="UILlpLeWlF1B1nE7Op1k-197" value="TercihEder" style="shape=table;startSize=30;container=1;collapsible=0;childLayout=tableLayout;" vertex="1" parent="1">
          <mxGeometry x="830" y="80" width="160" height="80" as="geometry" />
        </mxCell>
        <mxCell id="UILlpLeWlF1B1nE7Op1k-198" value="" style="shape=tableRow;horizontal=0;startSize=0;swimlaneHead=0;swimlaneBody=0;strokeColor=inherit;top=0;left=0;bottom=0;right=0;collapsible=0;dropTarget=0;fillColor=none;points=[[0,0.5],[1,0.5]];portConstraint=eastwest;" vertex="1" parent="UILlpLeWlF1B1nE7Op1k-197">
          <mxGeometry y="30" width="160" height="50" as="geometry" />
        </mxCell>
        <mxCell id="UILlpLeWlF1B1nE7Op1k-199" value="KullanıcıID (FK)" style="shape=partialRectangle;html=1;whiteSpace=wrap;connectable=0;strokeColor=inherit;overflow=hidden;fillColor=none;top=0;left=0;bottom=0;right=0;pointerEvents=1;fontStyle=4;" vertex="1" parent="UILlpLeWlF1B1nE7Op1k-198">
          <mxGeometry width="80" height="50" as="geometry">
            <mxRectangle width="80" height="50" as="alternateBounds" />
          </mxGeometry>
        </mxCell>
        <mxCell id="UILlpLeWlF1B1nE7Op1k-200" value="&lt;u&gt;GenreAdı (FK)&lt;/u&gt;" style="shape=partialRectangle;html=1;whiteSpace=wrap;connectable=0;strokeColor=inherit;overflow=hidden;fillColor=none;top=0;left=0;bottom=0;right=0;pointerEvents=1;" vertex="1" parent="UILlpLeWlF1B1nE7Op1k-198">
          <mxGeometry x="80" width="80" height="50" as="geometry">
            <mxRectangle width="80" height="50" as="alternateBounds" />
          </mxGeometry>
        </mxCell>
        <mxCell id="UILlpLeWlF1B1nE7Op1k-205" value="Aittir" style="shape=table;startSize=30;container=1;collapsible=0;childLayout=tableLayout;" vertex="1" parent="1">
          <mxGeometry x="810" y="560" width="160" height="80" as="geometry" />
        </mxCell>
        <mxCell id="UILlpLeWlF1B1nE7Op1k-206" value="" style="shape=tableRow;horizontal=0;startSize=0;swimlaneHead=0;swimlaneBody=0;strokeColor=inherit;top=0;left=0;bottom=0;right=0;collapsible=0;dropTarget=0;fillColor=none;points=[[0,0.5],[1,0.5]];portConstraint=eastwest;" vertex="1" parent="UILlpLeWlF1B1nE7Op1k-205">
          <mxGeometry y="30" width="160" height="50" as="geometry" />
        </mxCell>
        <mxCell id="UILlpLeWlF1B1nE7Op1k-207" value="&lt;u&gt;FilmID&amp;nbsp;&lt;/u&gt;&lt;div&gt;&lt;u&gt;(FK)&lt;/u&gt;&lt;/div&gt;" style="shape=partialRectangle;html=1;whiteSpace=wrap;connectable=0;strokeColor=inherit;overflow=hidden;fillColor=none;top=0;left=0;bottom=0;right=0;pointerEvents=1;" vertex="1" parent="UILlpLeWlF1B1nE7Op1k-206">
          <mxGeometry width="80" height="50" as="geometry">
            <mxRectangle width="80" height="50" as="alternateBounds" />
          </mxGeometry>
        </mxCell>
        <mxCell id="UILlpLeWlF1B1nE7Op1k-208" value="&lt;u&gt;GenreAdı (FK)&lt;/u&gt;" style="shape=partialRectangle;html=1;whiteSpace=wrap;connectable=0;strokeColor=inherit;overflow=hidden;fillColor=none;top=0;left=0;bottom=0;right=0;pointerEvents=1;" vertex="1" parent="UILlpLeWlF1B1nE7Op1k-206">
          <mxGeometry x="80" width="80" height="50" as="geometry">
            <mxRectangle width="80" height="50" as="alternateBounds" />
          </mxGeometry>
        </mxCell>
        <mxCell id="UILlpLeWlF1B1nE7Op1k-212" value="" style="endArrow=classic;html=1;rounded=0;exitX=0.062;exitY=1.053;exitDx=0;exitDy=0;entryX=0.24;entryY=0.988;entryDx=0;entryDy=0;exitPerimeter=0;entryPerimeter=0;" edge="1" parent="1" source="UILlpLeWlF1B1nE7Op1k-29" target="UILlpLeWlF1B1nE7Op1k-198">
          <mxGeometry width="50" height="50" relative="1" as="geometry">
            <mxPoint x="240" y="350" as="sourcePoint" />
            <mxPoint x="430" y="210" as="targetPoint" />
            <Array as="points">
              <mxPoint x="67" y="200" />
              <mxPoint x="440" y="200" />
              <mxPoint x="868" y="200" />
            </Array>
          </mxGeometry>
        </mxCell>
        <mxCell id="UILlpLeWlF1B1nE7Op1k-223" value="İzler" style="shape=table;startSize=30;container=1;collapsible=0;childLayout=tableLayout;" vertex="1" parent="1">
          <mxGeometry x="800" y="240" width="210" height="80" as="geometry" />
        </mxCell>
        <mxCell id="UILlpLeWlF1B1nE7Op1k-224" value="" style="shape=tableRow;horizontal=0;startSize=0;swimlaneHead=0;swimlaneBody=0;strokeColor=inherit;top=0;left=0;bottom=0;right=0;collapsible=0;dropTarget=0;fillColor=none;points=[[0,0.5],[1,0.5]];portConstraint=eastwest;" vertex="1" parent="UILlpLeWlF1B1nE7Op1k-223">
          <mxGeometry y="30" width="210" height="50" as="geometry" />
        </mxCell>
        <mxCell id="UILlpLeWlF1B1nE7Op1k-225" value="&lt;u&gt;KullanıcıID (FK)&lt;/u&gt;" style="shape=partialRectangle;html=1;whiteSpace=wrap;connectable=0;strokeColor=inherit;overflow=hidden;fillColor=none;top=0;left=0;bottom=0;right=0;pointerEvents=1;" vertex="1" parent="UILlpLeWlF1B1nE7Op1k-224">
          <mxGeometry width="60" height="50" as="geometry">
            <mxRectangle width="60" height="50" as="alternateBounds" />
          </mxGeometry>
        </mxCell>
        <mxCell id="UILlpLeWlF1B1nE7Op1k-226" value="&lt;u&gt;FilmID (FK)&lt;/u&gt;" style="shape=partialRectangle;html=1;whiteSpace=wrap;connectable=0;strokeColor=inherit;overflow=hidden;fillColor=none;top=0;left=0;bottom=0;right=0;pointerEvents=1;" vertex="1" parent="UILlpLeWlF1B1nE7Op1k-224">
          <mxGeometry x="60" width="60" height="50" as="geometry">
            <mxRectangle width="60" height="50" as="alternateBounds" />
          </mxGeometry>
        </mxCell>
        <mxCell id="UILlpLeWlF1B1nE7Op1k-227" value="İzlemeTarihi&amp;nbsp;" style="shape=partialRectangle;html=1;whiteSpace=wrap;connectable=0;strokeColor=inherit;overflow=hidden;fillColor=none;top=0;left=0;bottom=0;right=0;pointerEvents=1;" vertex="1" parent="UILlpLeWlF1B1nE7Op1k-224">
          <mxGeometry x="120" width="90" height="50" as="geometry">
            <mxRectangle width="90" height="50" as="alternateBounds" />
          </mxGeometry>
        </mxCell>
        <mxCell id="UILlpLeWlF1B1nE7Op1k-228" value="Beğenir" style="shape=table;startSize=30;container=1;collapsible=0;childLayout=tableLayout;" vertex="1" parent="1">
          <mxGeometry x="770" y="400" width="240" height="80" as="geometry" />
        </mxCell>
        <mxCell id="UILlpLeWlF1B1nE7Op1k-229" value="" style="shape=tableRow;horizontal=0;startSize=0;swimlaneHead=0;swimlaneBody=0;strokeColor=inherit;top=0;left=0;bottom=0;right=0;collapsible=0;dropTarget=0;fillColor=none;points=[[0,0.5],[1,0.5]];portConstraint=eastwest;" vertex="1" parent="UILlpLeWlF1B1nE7Op1k-228">
          <mxGeometry y="30" width="240" height="50" as="geometry" />
        </mxCell>
        <mxCell id="UILlpLeWlF1B1nE7Op1k-230" value="&lt;u&gt;KullanıcıID (FK)&lt;/u&gt;" style="shape=partialRectangle;html=1;whiteSpace=wrap;connectable=0;strokeColor=inherit;overflow=hidden;fillColor=none;top=0;left=0;bottom=0;right=0;pointerEvents=1;" vertex="1" parent="UILlpLeWlF1B1nE7Op1k-229">
          <mxGeometry width="73" height="50" as="geometry">
            <mxRectangle width="73" height="50" as="alternateBounds" />
          </mxGeometry>
        </mxCell>
        <mxCell id="UILlpLeWlF1B1nE7Op1k-231" value="&lt;u&gt;FilmID (FK)&lt;/u&gt;" style="shape=partialRectangle;html=1;whiteSpace=wrap;connectable=0;strokeColor=inherit;overflow=hidden;fillColor=none;top=0;left=0;bottom=0;right=0;pointerEvents=1;" vertex="1" parent="UILlpLeWlF1B1nE7Op1k-229">
          <mxGeometry x="73" width="73" height="50" as="geometry">
            <mxRectangle width="73" height="50" as="alternateBounds" />
          </mxGeometry>
        </mxCell>
        <mxCell id="UILlpLeWlF1B1nE7Op1k-232" value="BeğenmeTarihi&amp;nbsp;" style="shape=partialRectangle;html=1;whiteSpace=wrap;connectable=0;strokeColor=inherit;overflow=hidden;fillColor=none;top=0;left=0;bottom=0;right=0;pointerEvents=1;" vertex="1" parent="UILlpLeWlF1B1nE7Op1k-229">
          <mxGeometry x="146" width="94" height="50" as="geometry">
            <mxRectangle width="94" height="50" as="alternateBounds" />
          </mxGeometry>
        </mxCell>
        <mxCell id="UILlpLeWlF1B1nE7Op1k-239" style="edgeStyle=orthogonalEdgeStyle;rounded=0;orthogonalLoop=1;jettySize=auto;html=1;exitX=1;exitY=0.5;exitDx=0;exitDy=0;entryX=0.812;entryY=1.01;entryDx=0;entryDy=0;entryPerimeter=0;" edge="1" parent="1" source="UILlpLeWlF1B1nE7Op1k-54" target="UILlpLeWlF1B1nE7Op1k-198">
          <mxGeometry relative="1" as="geometry">
            <mxPoint x="980" y="210" as="targetPoint" />
            <Array as="points">
              <mxPoint x="680" y="615" />
              <mxPoint x="680" y="210" />
              <mxPoint x="960" y="210" />
            </Array>
          </mxGeometry>
        </mxCell>
        <mxCell id="UILlpLeWlF1B1nE7Op1k-240" value="" style="endArrow=classic;html=1;rounded=0;exitX=0.108;exitY=1.02;exitDx=0;exitDy=0;exitPerimeter=0;entryX=0.131;entryY=1.02;entryDx=0;entryDy=0;entryPerimeter=0;" edge="1" parent="1" source="UILlpLeWlF1B1nE7Op1k-29" target="UILlpLeWlF1B1nE7Op1k-224">
          <mxGeometry width="50" height="50" relative="1" as="geometry">
            <mxPoint x="480" y="360" as="sourcePoint" />
            <mxPoint x="530" y="310" as="targetPoint" />
            <Array as="points">
              <mxPoint x="86" y="190" />
              <mxPoint x="520" y="190" />
              <mxPoint x="520" y="360" />
              <mxPoint x="828" y="360" />
            </Array>
          </mxGeometry>
        </mxCell>
        <mxCell id="UILlpLeWlF1B1nE7Op1k-241" value="" style="endArrow=classic;html=1;rounded=0;exitX=0.025;exitY=1.045;exitDx=0;exitDy=0;exitPerimeter=0;entryX=0.121;entryY=1.002;entryDx=0;entryDy=0;entryPerimeter=0;" edge="1" parent="1" source="UILlpLeWlF1B1nE7Op1k-29" target="UILlpLeWlF1B1nE7Op1k-229">
          <mxGeometry width="50" height="50" relative="1" as="geometry">
            <mxPoint x="340" y="310" as="sourcePoint" />
            <mxPoint x="610" y="420" as="targetPoint" />
            <Array as="points">
              <mxPoint x="51" y="210" />
              <mxPoint x="560" y="210" />
              <mxPoint x="560" y="510" />
              <mxPoint x="800" y="510" />
            </Array>
          </mxGeometry>
        </mxCell>
        <mxCell id="UILlpLeWlF1B1nE7Op1k-242" value="" style="endArrow=classic;html=1;rounded=0;exitX=0.131;exitY=1.091;exitDx=0;exitDy=0;exitPerimeter=0;entryX=0.411;entryY=1.056;entryDx=0;entryDy=0;entryPerimeter=0;" edge="1" parent="1" source="UILlpLeWlF1B1nE7Op1k-42" target="UILlpLeWlF1B1nE7Op1k-224">
          <mxGeometry width="50" height="50" relative="1" as="geometry">
            <mxPoint x="430" y="380" as="sourcePoint" />
            <mxPoint x="480" y="330" as="targetPoint" />
            <Array as="points">
              <mxPoint x="90" y="340" />
              <mxPoint x="886" y="340" />
            </Array>
          </mxGeometry>
        </mxCell>
        <mxCell id="UILlpLeWlF1B1nE7Op1k-244" value="" style="endArrow=classic;html=1;rounded=0;exitX=0.104;exitY=1.02;exitDx=0;exitDy=0;exitPerimeter=0;entryX=0.455;entryY=1.02;entryDx=0;entryDy=0;entryPerimeter=0;" edge="1" parent="1" source="UILlpLeWlF1B1nE7Op1k-42" target="UILlpLeWlF1B1nE7Op1k-229">
          <mxGeometry width="50" height="50" relative="1" as="geometry">
            <mxPoint x="80" y="330" as="sourcePoint" />
            <mxPoint x="490" y="430" as="targetPoint" />
            <Array as="points">
              <mxPoint x="80" y="360" />
              <mxPoint x="400" y="360" />
              <mxPoint x="400" y="520" />
              <mxPoint x="879" y="520" />
            </Array>
          </mxGeometry>
        </mxCell>
        <mxCell id="UILlpLeWlF1B1nE7Op1k-245" value="" style="endArrow=classic;html=1;rounded=0;entryX=0.225;entryY=1.03;entryDx=0;entryDy=0;entryPerimeter=0;exitX=0.079;exitY=0.986;exitDx=0;exitDy=0;exitPerimeter=0;" edge="1" parent="1" source="UILlpLeWlF1B1nE7Op1k-42" target="UILlpLeWlF1B1nE7Op1k-206">
          <mxGeometry width="50" height="50" relative="1" as="geometry">
            <mxPoint x="60" y="320" as="sourcePoint" />
            <mxPoint x="470" y="430" as="targetPoint" />
            <Array as="points">
              <mxPoint x="70" y="380" />
              <mxPoint x="280" y="380" />
              <mxPoint x="280" y="660" />
              <mxPoint x="846" y="660" />
            </Array>
          </mxGeometry>
        </mxCell>
        <mxCell id="UILlpLeWlF1B1nE7Op1k-248" value="" style="endArrow=classic;html=1;rounded=0;exitX=0.417;exitY=1.07;exitDx=0;exitDy=0;exitPerimeter=0;entryX=0.8;entryY=1.03;entryDx=0;entryDy=0;entryPerimeter=0;" edge="1" parent="1" source="UILlpLeWlF1B1nE7Op1k-54" target="UILlpLeWlF1B1nE7Op1k-206">
          <mxGeometry width="50" height="50" relative="1" as="geometry">
            <mxPoint x="480" y="610" as="sourcePoint" />
            <mxPoint x="530" y="560" as="targetPoint" />
            <Array as="points">
              <mxPoint x="605" y="670" />
              <mxPoint x="938" y="670" />
            </Array>
          </mxGeometry>
        </mxCell>
        <mxCell id="UILlpLeWlF1B1nE7Op1k-249" style="edgeStyle=orthogonalEdgeStyle;rounded=0;orthogonalLoop=1;jettySize=auto;html=1;exitX=0;exitY=0.5;exitDx=0;exitDy=0;entryX=0;entryY=0.5;entryDx=0;entryDy=0;" edge="1" parent="1" source="UILlpLeWlF1B1nE7Op1k-42" target="UILlpLeWlF1B1nE7Op1k-50">
          <mxGeometry relative="1" as="geometry" />
        </mxCell>
        <mxCell id="UILlpLeWlF1B1nE7Op1k-250" value="PopülerFilmListesi" style="shape=table;startSize=30;container=1;collapsible=0;childLayout=tableLayout;" vertex="1" parent="1">
          <mxGeometry x="130" y="570" width="110" height="70" as="geometry" />
        </mxCell>
        <mxCell id="UILlpLeWlF1B1nE7Op1k-251" value="" style="shape=tableRow;horizontal=0;startSize=0;swimlaneHead=0;swimlaneBody=0;strokeColor=inherit;top=0;left=0;bottom=0;right=0;collapsible=0;dropTarget=0;fillColor=none;points=[[0,0.5],[1,0.5]];portConstraint=eastwest;" vertex="1" parent="UILlpLeWlF1B1nE7Op1k-250">
          <mxGeometry y="30" width="110" height="40" as="geometry" />
        </mxCell>
        <mxCell id="UILlpLeWlF1B1nE7Op1k-252" value="&lt;u&gt;FilmID (FK)&lt;/u&gt;" style="shape=partialRectangle;html=1;whiteSpace=wrap;connectable=0;strokeColor=inherit;overflow=hidden;fillColor=none;top=0;left=0;bottom=0;right=0;pointerEvents=1;" vertex="1" parent="UILlpLeWlF1B1nE7Op1k-251">
          <mxGeometry width="110" height="40" as="geometry">
            <mxRectangle width="110" height="40" as="alternateBounds" />
          </mxGeometry>
        </mxCell>
        <mxCell id="UILlpLeWlF1B1nE7Op1k-253" value="ÖneriFilmListesi" style="shape=table;startSize=30;container=1;collapsible=0;childLayout=tableLayout;" vertex="1" parent="1">
          <mxGeometry x="60" y="730" width="220" height="70" as="geometry" />
        </mxCell>
        <mxCell id="UILlpLeWlF1B1nE7Op1k-254" value="" style="shape=tableRow;horizontal=0;startSize=0;swimlaneHead=0;swimlaneBody=0;strokeColor=inherit;top=0;left=0;bottom=0;right=0;collapsible=0;dropTarget=0;fillColor=none;points=[[0,0.5],[1,0.5]];portConstraint=eastwest;" vertex="1" parent="UILlpLeWlF1B1nE7Op1k-253">
          <mxGeometry y="30" width="220" height="40" as="geometry" />
        </mxCell>
        <mxCell id="UILlpLeWlF1B1nE7Op1k-255" value="&lt;u&gt;KullanıcıID (FK)&lt;/u&gt;" style="shape=partialRectangle;html=1;whiteSpace=wrap;connectable=0;strokeColor=inherit;overflow=hidden;fillColor=none;top=0;left=0;bottom=0;right=0;pointerEvents=1;" vertex="1" parent="UILlpLeWlF1B1nE7Op1k-254">
          <mxGeometry width="110" height="40" as="geometry">
            <mxRectangle width="110" height="40" as="alternateBounds" />
          </mxGeometry>
        </mxCell>
        <mxCell id="UILlpLeWlF1B1nE7Op1k-256" value="&lt;u&gt;FilmID (FK)&lt;/u&gt;" style="shape=partialRectangle;html=1;whiteSpace=wrap;connectable=0;strokeColor=inherit;overflow=hidden;fillColor=none;top=0;left=0;bottom=0;right=0;pointerEvents=1;" vertex="1" parent="UILlpLeWlF1B1nE7Op1k-254">
          <mxGeometry x="110" width="110" height="40" as="geometry">
            <mxRectangle width="110" height="40" as="alternateBounds" />
          </mxGeometry>
        </mxCell>
        <mxCell id="UILlpLeWlF1B1nE7Op1k-262" value="" style="endArrow=classic;html=1;rounded=0;entryX=0.787;entryY=1.024;entryDx=0;entryDy=0;entryPerimeter=0;exitX=0.051;exitY=1.009;exitDx=0;exitDy=0;exitPerimeter=0;" edge="1" parent="1" source="UILlpLeWlF1B1nE7Op1k-42">
          <mxGeometry width="50" height="50" relative="1" as="geometry">
            <mxPoint x="60" y="330" as="sourcePoint" />
            <mxPoint x="218.97000000000006" y="640.96" as="targetPoint" />
            <Array as="points">
              <mxPoint x="60" y="490" />
              <mxPoint x="60" y="660" />
              <mxPoint x="219.4" y="660" />
            </Array>
          </mxGeometry>
        </mxCell>
        <mxCell id="UILlpLeWlF1B1nE7Op1k-263" style="edgeStyle=orthogonalEdgeStyle;rounded=0;orthogonalLoop=1;jettySize=auto;html=1;exitX=0;exitY=0.5;exitDx=0;exitDy=0;entryX=0.137;entryY=1.018;entryDx=0;entryDy=0;entryPerimeter=0;" edge="1" parent="1" source="UILlpLeWlF1B1nE7Op1k-29" target="UILlpLeWlF1B1nE7Op1k-254">
          <mxGeometry relative="1" as="geometry">
            <mxPoint x="10" y="650" as="targetPoint" />
            <Array as="points">
              <mxPoint x="10" y="135" />
              <mxPoint x="10" y="830" />
              <mxPoint x="90" y="830" />
            </Array>
          </mxGeometry>
        </mxCell>
        <mxCell id="UILlpLeWlF1B1nE7Op1k-264" value="" style="endArrow=classic;html=1;rounded=0;exitX=0.001;exitY=1.022;exitDx=0;exitDy=0;exitPerimeter=0;entryX=0.71;entryY=1.05;entryDx=0;entryDy=0;entryPerimeter=0;" edge="1" parent="1" source="UILlpLeWlF1B1nE7Op1k-42" target="UILlpLeWlF1B1nE7Op1k-254">
          <mxGeometry width="50" height="50" relative="1" as="geometry">
            <mxPoint x="80" y="530" as="sourcePoint" />
            <mxPoint x="50" y="850" as="targetPoint" />
            <Array as="points">
              <mxPoint x="40" y="820" />
              <mxPoint x="216" y="820" />
            </Array>
          </mxGeometry>
        </mxCell>
        <mxCell id="UILlpLeWlF1B1nE7Op1k-265" value="İçerir" style="shape=table;startSize=30;container=1;collapsible=0;childLayout=tableLayout;" vertex="1" parent="1">
          <mxGeometry x="400" y="720" width="200" height="80" as="geometry" />
        </mxCell>
        <mxCell id="UILlpLeWlF1B1nE7Op1k-266" value="" style="shape=tableRow;horizontal=0;startSize=0;swimlaneHead=0;swimlaneBody=0;strokeColor=inherit;top=0;left=0;bottom=0;right=0;collapsible=0;dropTarget=0;fillColor=none;points=[[0,0.5],[1,0.5]];portConstraint=eastwest;" vertex="1" parent="UILlpLeWlF1B1nE7Op1k-265">
          <mxGeometry y="30" width="200" height="50" as="geometry" />
        </mxCell>
        <mxCell id="UILlpLeWlF1B1nE7Op1k-267" value="&lt;u&gt;KullanıcıID (FK)&lt;/u&gt;" style="shape=partialRectangle;html=1;whiteSpace=wrap;connectable=0;strokeColor=inherit;overflow=hidden;fillColor=none;top=0;left=0;bottom=0;right=0;pointerEvents=1;" vertex="1" parent="UILlpLeWlF1B1nE7Op1k-266">
          <mxGeometry width="100" height="50" as="geometry">
            <mxRectangle width="100" height="50" as="alternateBounds" />
          </mxGeometry>
        </mxCell>
        <mxCell id="UILlpLeWlF1B1nE7Op1k-268" value="&lt;u&gt;FilmID (FK)&lt;/u&gt;" style="shape=partialRectangle;html=1;whiteSpace=wrap;connectable=0;strokeColor=inherit;overflow=hidden;fillColor=none;top=0;left=0;bottom=0;right=0;pointerEvents=1;" vertex="1" parent="UILlpLeWlF1B1nE7Op1k-266">
          <mxGeometry x="100" width="100" height="50" as="geometry">
            <mxRectangle width="100" height="50" as="alternateBounds" />
          </mxGeometry>
        </mxCell>
        <mxCell id="UILlpLeWlF1B1nE7Op1k-270" value="" style="edgeStyle=segmentEdgeStyle;endArrow=classic;html=1;curved=0;rounded=0;endSize=8;startSize=8;entryX=0.194;entryY=0.968;entryDx=0;entryDy=0;entryPerimeter=0;" edge="1" parent="1" target="UILlpLeWlF1B1nE7Op1k-266">
          <mxGeometry width="50" height="50" relative="1" as="geometry">
            <mxPoint x="90" y="830" as="sourcePoint" />
            <mxPoint x="570" y="600" as="targetPoint" />
          </mxGeometry>
        </mxCell>
        <mxCell id="UILlpLeWlF1B1nE7Op1k-271" value="" style="edgeStyle=segmentEdgeStyle;endArrow=classic;html=1;curved=0;rounded=0;endSize=8;startSize=8;entryX=0.739;entryY=1.016;entryDx=0;entryDy=0;entryPerimeter=0;" edge="1" parent="1" target="UILlpLeWlF1B1nE7Op1k-266">
          <mxGeometry width="50" height="50" relative="1" as="geometry">
            <mxPoint x="210" y="820" as="sourcePoint" />
            <mxPoint x="520" y="670" as="targetPoint" />
          </mxGeometry>
        </mxCell>
      </root>
    </mxGraphModel>
  </diagram>
</mxfile>
